# xmcd
#
# Track frame offsets: 
#        150
#        10988
#        27494
#        51589
#        64257
#        79505
#        100499
#        113035
#        135706
#        152750
#        175094
#        199366
#        212029
#        226123
#        253706
#        267788
#        285613
#        302512
#        316302
#        336593
#
# Disc length: 4747 seconds
#
# Revision: 0
# Processed by: cddbd v1.5.2PL0 Copyright (c) Steve Scherf et al.
# Submitted via: ExactAudioCopy v1.0b1
#
DISCID=23128914
DTITLE=Stevie Ray Vaughan And Double Trouble - Texas Flood.Soul To Sou
DTITLE=l
DYEAR=1900
DGENRE=Blues
TTITLE0=Love Struck Baby
TTITLE1=Pride And Joy
TTITLE2=Texas Flood
TTITLE3=Tell Me
TTITLE4=Testify
TTITLE5=Rude Mood
TTITLE6=Mary Had A Little Lamb
TTITLE7=Dirty Pool
TTITLE8=I'm Cryin'
TTITLE9=Lenny
TTITLE10=Say What
TTITLE11=Lookin' Out The Window
TTITLE12=Look At Little Sister
TTITLE13=Ain't Gone 'N' Give Up On Love
TTITLE14=Gone Home
TTITLE15=Change It
TTITLE16=You'll Be Mine
TTITLE17=Empty Arms
TTITLE18=Come On (Part III)
TTITLE19=Life Without You
EXTD=
EXTT0=
EXTT1=
EXTT2=
EXTT3=
EXTT4=
EXTT5=
EXTT6=
EXTT7=
EXTT8=
EXTT9=
EXTT10=
EXTT11=
EXTT12=
EXTT13=
EXTT14=
EXTT15=
EXTT16=
EXTT17=
EXTT18=
EXTT19=
PLAYORDER=
